<?xml version="1.0" encoding="utf-8"?>
<!-- Generator: Adobe Illustrator 26.0.2, SVG Export Plug-In . SVG Version: 6.00 Build 0)  -->
<svg version="1.1" id="Layer_1" xmlns="http://www.w3.org/2000/svg" xmlns:xlink="http://www.w3.org/1999/xlink" x="0px" y="0px"
	 viewBox="0 0 100 32" style="enable-background:new 0 0 100 32;" xml:space="preserve">
<style type="text/css">
	.st0{fill:#202020;}
	.st1{fill:#FFFFFF;}
	.st2{fill:#313131;}
	.st3{fill-rule:evenodd;clip-rule:evenodd;fill:#FFFFFF;}
</style>
<g>
	<g>
		<path class="st0" d="M16,0h68c8.8,0,16,7.2,16,16l0,0c0,8.8-7.2,16-16,16H16C7.2,32,0,24.8,0,16l0,0C0,7.2,7.2,0,16,0z"/>
	</g>
	<path class="st1" d="M12.8,20.5h-1.5l3.4-9.5h1.6l3.4,9.5h-1.5l-2.7-7.7h-0.1L12.8,20.5z M13.1,16.8H18V18h-4.9V16.8z M21,20.5
		v-7.1h1.4v3h0.7l2.3-3h1.7l-2.7,3.4l2.8,3.6h-1.7l-2.1-2.8h-0.9v2.8H21z M28.2,20.5v-7.1h1.4v3h0.7l2.3-3h1.7l-2.7,3.4l2.8,3.6
		h-1.7l-2.1-2.8h-0.9v2.8H28.2z M37.5,20.7c-0.4,0-0.9-0.1-1.2-0.2c-0.4-0.2-0.7-0.4-0.9-0.7c-0.2-0.3-0.3-0.7-0.3-1.2
		c0-0.4,0.1-0.7,0.2-1c0.2-0.3,0.4-0.5,0.6-0.6c0.3-0.2,0.6-0.3,0.9-0.3c0.3-0.1,0.7-0.1,1-0.2c0.4,0,0.8-0.1,1-0.1
		c0.3,0,0.5-0.1,0.6-0.2c0.1-0.1,0.2-0.2,0.2-0.4v0c0-0.4-0.1-0.7-0.3-0.9c-0.2-0.2-0.6-0.3-1-0.3c-0.5,0-0.8,0.1-1.1,0.3
		c-0.3,0.2-0.4,0.4-0.5,0.7l-1.3-0.3c0.2-0.4,0.4-0.8,0.7-1c0.3-0.3,0.6-0.5,1-0.6c0.4-0.1,0.8-0.2,1.2-0.2c0.3,0,0.6,0,0.9,0.1
		c0.3,0.1,0.6,0.2,0.9,0.4c0.3,0.2,0.5,0.4,0.7,0.8c0.2,0.3,0.3,0.7,0.3,1.3v4.7h-1.3v-1h-0.1c-0.1,0.2-0.2,0.4-0.4,0.5
		c-0.2,0.2-0.4,0.3-0.7,0.4C38.2,20.6,37.9,20.7,37.5,20.7z M37.8,19.5c0.4,0,0.7-0.1,1-0.2c0.3-0.2,0.5-0.3,0.6-0.6
		c0.1-0.2,0.2-0.5,0.2-0.8V17c0,0-0.1,0.1-0.3,0.1c-0.1,0-0.3,0.1-0.5,0.1c-0.2,0-0.4,0.1-0.5,0.1c-0.2,0-0.3,0-0.4,0.1
		c-0.3,0-0.5,0.1-0.7,0.2c-0.2,0.1-0.4,0.2-0.5,0.3c-0.1,0.1-0.2,0.3-0.2,0.6c0,0.3,0.1,0.6,0.4,0.8C37.1,19.5,37.4,19.5,37.8,19.5z
		 M43.4,23.2c-0.2,0-0.4,0-0.6-0.1c-0.2,0-0.3-0.1-0.4-0.1l0.3-1.1c0.3,0.1,0.5,0.1,0.7,0.1c0.2,0,0.4-0.1,0.5-0.2
		c0.2-0.1,0.3-0.4,0.4-0.7l0.2-0.5L42,13.4h1.5l1.8,5.5h0.1l1.8-5.5h1.5l-2.9,8c-0.1,0.4-0.3,0.7-0.5,0.9c-0.2,0.3-0.5,0.5-0.7,0.6
		C44.2,23.1,43.8,23.2,43.4,23.2z M54.7,16.4v1.2h-3.8v-1.2H54.7z M51.3,13.4v7.1h-1.4v-7.1H51.3z M55.7,13.4v7.1h-1.3v-7.1H55.7z
		 M56.7,14.6v-1.2h6v1.2h-2.3v5.9H59v-5.9H56.7z"/>
	<path class="st2" d="M84,3L84,3c7.2,0,13,5.8,13,13l0,0c0,7.2-5.8,13-13,13l0,0c-7.2,0-13-5.8-13-13l0,0C71,8.8,76.8,3,84,3z"/>
	<path class="st3" d="M85.4,18c1.4-0.6,2.3-1.9,2.3-3.5c0-2.1-1.7-3.8-3.7-3.8c-2.1,0-3.8,1.7-3.8,3.8c0,1.6,1,2.9,2.3,3.5
		c-1.4,0.2-2.7,0.8-3.8,1.6l1.4,1.8c1.1-0.8,2.4-1.3,3.8-1.3c1.4,0,2.7,0.5,3.8,1.3l1.4-1.8C88.1,18.8,86.8,18.2,85.4,18z"/>
</g>
</svg>
